# xmcd CD database file
#
# Track frame offsets:
#	150
#	17303
#	32449
#	48207
#	61644
#	75993
#	100443
#	112594
#	132599
#	144138
#	160034
#	183968
#
# Disc length: 2638 seconds
#
# Revision: 0
# Processed by: cddbd v1.4PL0 Copyright (c) Steve Scherf et al.
# Submitted via: CDex 1.50Beta3
#
DISCID=7b0a4c0c
DTITLE=Nazca - Music For a New Age
DYEAR=1900
DGENRE=New Age
TTITLE0=Simonetti-Profondo Rosso
TTITLE1=Albert Gaste-Feelings
TTITLE2=Vángelis-Momenti di gloria
TTITLE3=Ghinazzi-Forse
TTITLE4=Harrison-Here comes the sun
TTITLE5=L Dalla-Caruso
TTITLE6=J Williams-Schindler's list
TTITLE7=P Anka-My way
TTITLE8=Carmina Burana-Excalibur
TTITLE9=Tennille-Do that to one more time
TTITLE10=JL y JM Cano-Hermano sol, Hermana Luna
TTITLE11=R Straus-2001 Odissea nello spazio
EXTD=
EXTT0=
EXTT1=
EXTT2=
EXTT3=
EXTT4=
EXTT5=
EXTT6=
EXTT7=
EXTT8=
EXTT9=
EXTT10=
EXTT11=
PLAYORDER=
